<?xml version="1.0" encoding="UTF-8"?>
<!DOCTYPE svg PUBLIC "-//W3C//DTD SVG 1.1//EN" "http://www.w3.org/Graphics/SVG/1.1/DTD/svg11.dtd">
<svg xmlns="http://www.w3.org/2000/svg" version="1.1" width="512px" height="512px" style="shape-rendering:geometricPrecision; text-rendering:geometricPrecision; image-rendering:optimizeQuality; fill-rule:evenodd; clip-rule:evenodd" xmlns:xlink="http://www.w3.org/1999/xlink">
<g><path style="opacity:0.09" fill="#378f4a" d="M 484.5,32.5 C 484.897,31.475 485.563,31.3083 486.5,32C 494.993,41.1256 500.826,51.6256 504,63.5C 498.988,52.1235 492.488,41.7902 484.5,32.5 Z"/></g>
<g><path style="opacity:1" fill="#027f3b" d="M 195.5,221.5 C 170.325,225.109 144.992,226.442 119.5,225.5C 119.5,228.5 119.5,231.5 119.5,234.5C 119.167,234.5 118.833,234.5 118.5,234.5C 118.333,191.499 118.5,148.499 119,105.5C 119.549,99.3937 122.383,94.7271 127.5,91.5C 127.938,91.4346 128.272,91.6012 128.5,92C 123.326,97.2475 123.659,97.5808 129.5,93C 131.608,92.6401 133.608,91.9734 135.5,91C 152.5,90.3333 169.5,90.3333 186.5,91C 192.464,93.6345 196.297,98.1345 198,104.5C 198.5,142.832 198.667,181.165 198.5,219.5C 197.127,219.343 195.793,219.51 194.5,220C 195.056,220.383 195.389,220.883 195.5,221.5 Z"/></g>
<g><path style="opacity:1" fill="#ebba45" d="M 316.5,89.5 C 324.684,89.1743 332.684,89.5076 340.5,90.5C 338.833,90.5 337.167,90.5 335.5,90.5C 335.883,93.462 334.883,94.462 332.5,93.5C 332.167,115 331.833,136.5 331.5,158C 331.526,180.407 332.193,202.74 333.5,225C 332.38,228.743 330.38,231.91 327.5,234.5C 327.863,235.183 328.196,235.85 328.5,236.5C 326.515,239.118 324.515,241.785 322.5,244.5C 322.167,245.5 321.5,246.167 320.5,246.5C 318.456,247.031 316.789,248.198 315.5,250C 313.866,250.494 312.199,250.66 310.5,250.5C 311.024,254.31 309.357,256.31 305.5,256.5C 305.5,255.5 305.5,254.5 305.5,253.5C 308.5,253.833 309.833,252.5 309.5,249.5C 310.5,249.5 311.5,249.5 312.5,249.5C 312.297,247.362 311.297,245.695 309.5,244.5C 310.074,242.941 310.74,241.441 311.5,240C 310.836,215.905 310.502,191.738 310.5,167.5C 310.524,142.176 311.19,117.342 312.5,93C 309.668,92.6736 307.001,93.1736 304.5,94.5C 307.756,91.2097 311.756,89.543 316.5,89.5 Z"/></g>
<g><path style="opacity:1" fill="#e5b23f" d="M 340.5,90.5 C 342.989,90.2978 345.323,90.7978 347.5,92C 345.167,93 342.833,94 340.5,95C 341.416,95.3742 342.25,95.8742 343,96.5C 343.333,127.833 343.667,159.167 344,190.5C 345.317,194.319 346.15,198.319 346.5,202.5C 345.21,204.927 345.543,206.927 347.5,208.5C 346.833,209.167 346.167,209.833 345.5,210.5C 345.624,211.107 345.957,211.44 346.5,211.5C 345.198,215.25 343.032,219.25 340,223.5C 336.273,228.053 332.439,232.386 328.5,236.5C 328.196,235.85 327.863,235.183 327.5,234.5C 330.38,231.91 332.38,228.743 333.5,225C 332.193,202.74 331.526,180.407 331.5,158C 331.833,136.5 332.167,115 332.5,93.5C 334.883,94.462 335.883,93.462 335.5,90.5C 337.167,90.5 338.833,90.5 340.5,90.5 Z"/></g>
<g><path style="opacity:1" fill="#dba537" d="M 316.5,89.5 C 333.328,88.3383 350.328,88.1716 367.5,89C 373.684,90.1974 378.517,93.3641 382,98.5C 382.667,105.833 382.667,113.167 382,120.5C 380.214,126.342 379.214,132.342 379,138.5C 377.797,143.894 375.797,148.894 373,153.5C 371.412,163.263 368.412,172.597 364,181.5C 363.506,183.134 363.34,184.801 363.5,186.5C 361.027,189.71 358.527,193.044 356,196.5C 355.282,195.549 354.449,195.383 353.5,196C 354.602,198.401 354.769,200.901 354,203.5C 351.295,206.036 348.795,208.703 346.5,211.5C 345.957,211.44 345.624,211.107 345.5,210.5C 346.167,209.833 346.833,209.167 347.5,208.5C 345.543,206.927 345.21,204.927 346.5,202.5C 346.15,198.319 345.317,194.319 344,190.5C 343.667,159.167 343.333,127.833 343,96.5C 342.25,95.8742 341.416,95.3742 340.5,95C 342.833,94 345.167,93 347.5,92C 345.323,90.7978 342.989,90.2978 340.5,90.5C 332.684,89.5076 324.684,89.1743 316.5,89.5 Z"/></g>
<g><path style="opacity:1" fill="#f5c74f" d="M 305.5,256.5 C 303.287,257.64 301.12,258.973 299,260.5C 296.634,259.062 296.134,259.562 297.5,262C 295.536,262.624 293.869,262.124 292.5,260.5C 291.692,262.423 291.192,264.423 291,266.5C 288.539,267.218 286.039,267.885 283.5,268.5C 282.571,269.689 282.238,271.022 282.5,272.5C 281.022,272.762 279.689,272.429 278.5,271.5C 279.227,244.619 279.727,217.619 280,190.5C 280.374,189.584 280.874,188.75 281.5,188C 278.833,185 278.833,182 281.5,179C 279.163,176.806 278.83,174.306 280.5,171.5C 283.315,167.49 285.315,162.99 286.5,158C 287.608,156.323 287.608,154.823 286.5,153.5C 286.5,152.833 286.833,152.5 287.5,152.5C 288.931,151.097 290.098,149.431 291,147.5C 295.012,133.429 297.512,119.095 298.5,104.5C 298.5,104.167 298.5,103.833 298.5,103.5C 299.744,100.018 301.744,97.0177 304.5,94.5C 307.001,93.1736 309.668,92.6736 312.5,93C 311.19,117.342 310.524,142.176 310.5,167.5C 310.502,191.738 310.836,215.905 311.5,240C 310.74,241.441 310.074,242.941 309.5,244.5C 311.297,245.695 312.297,247.362 312.5,249.5C 311.5,249.5 310.5,249.5 309.5,249.5C 309.833,252.5 308.5,253.833 305.5,253.5C 305.5,254.5 305.5,255.5 305.5,256.5 Z"/></g>
<g><path style="opacity:1" fill="#187c42" d="M 200.5,218.5 C 200.5,219.5 200.5,220.5 200.5,221.5C 198.833,221.5 197.167,221.5 195.5,221.5C 195.389,220.883 195.056,220.383 194.5,220C 195.793,219.51 197.127,219.343 198.5,219.5C 198.667,181.165 198.5,142.832 198,104.5C 196.297,98.1345 192.464,93.6345 186.5,91C 169.5,90.3333 152.5,90.3333 135.5,91C 133.608,91.9734 131.608,92.6401 129.5,93C 123.659,97.5808 123.326,97.2475 128.5,92C 128.272,91.6012 127.938,91.4346 127.5,91.5C 131.212,88.6427 135.545,87.1427 140.5,87C 153.167,87.6667 165.833,87.6667 178.5,87C 189.179,87.4128 196.346,92.5794 200,102.5C 200.5,141.165 200.667,179.832 200.5,218.5 Z"/></g>
<g><path style="opacity:0.51" fill="#b7b34e" d="M 298.5,104.5 C 297.512,119.095 295.012,133.429 291,147.5C 290.098,149.431 288.931,151.097 287.5,152.5C 292.883,136.854 296.55,120.854 298.5,104.5 Z"/></g>
<g><path style="opacity:0.051" fill="#b4a341" d="M 363.5,186.5 C 363.34,184.801 363.506,183.134 364,181.5C 368.412,172.597 371.412,163.263 373,153.5C 375.797,148.894 377.797,143.894 379,138.5C 379.214,132.342 380.214,126.342 382,120.5C 382.667,113.167 382.667,105.833 382,98.5C 378.517,93.3641 373.684,90.1974 367.5,89C 350.328,88.1716 333.328,88.3383 316.5,89.5C 311.756,89.543 307.756,91.2097 304.5,94.5C 301.744,97.0177 299.744,100.018 298.5,103.5C 299.344,96.148 303.344,91.3147 310.5,89C 314.773,87.9695 319.106,87.3028 323.5,87C 338.827,87.0413 354.16,87.3747 369.5,88C 380.722,90.5552 385.722,97.5552 384.5,109C 382.3,136.273 375.3,162.107 363.5,186.5 Z"/></g>
<g><path style="opacity:1" fill="#f5d67e" d="M 286.5,153.5 C 287.608,154.823 287.608,156.323 286.5,158C 285.315,162.99 283.315,167.49 280.5,171.5C 277.225,174.376 275.225,178.043 274.5,182.5C 275.325,183.386 276.325,183.719 277.5,183.5C 277.688,185.103 277.188,186.437 276,187.5C 275.626,217.283 275.126,246.95 274.5,276.5C 273.209,276.263 272.209,276.596 271.5,277.5C 270.167,277.5 268.833,277.5 267.5,277.5C 267.376,248.459 267.376,219.459 267.5,190.5C 266.643,189.6 265.976,189.934 265.5,191.5C 261.544,193.788 258.211,196.788 255.5,200.5C 253.965,201.354 252.632,201.354 251.5,200.5C 262.71,192.446 271.877,182.446 279,170.5C 281.983,165.051 284.483,159.384 286.5,153.5 Z"/></g>
<g><path style="opacity:1" fill="#f7d268" d="M 280.5,171.5 C 278.83,174.306 279.163,176.806 281.5,179C 278.833,182 278.833,185 281.5,188C 280.874,188.75 280.374,189.584 280,190.5C 279.727,217.619 279.227,244.619 278.5,271.5C 279.689,272.429 281.022,272.762 282.5,272.5C 282.238,271.022 282.571,269.689 283.5,268.5C 286.039,267.885 288.539,267.218 291,266.5C 291.192,264.423 291.692,262.423 292.5,260.5C 293.869,262.124 295.536,262.624 297.5,262C 296.134,259.562 296.634,259.062 299,260.5C 301.12,258.973 303.287,257.64 305.5,256.5C 309.357,256.31 311.024,254.31 310.5,250.5C 312.199,250.66 313.866,250.494 315.5,250C 316.789,248.198 318.456,247.031 320.5,246.5C 317.099,250.904 313.099,254.571 308.5,257.5C 307.448,257.351 306.448,257.517 305.5,258C 295.236,266.631 283.903,273.464 271.5,278.5C 271.5,278.167 271.5,277.833 271.5,277.5C 272.209,276.596 273.209,276.263 274.5,276.5C 275.126,246.95 275.626,217.283 276,187.5C 277.188,186.437 277.688,185.103 277.5,183.5C 276.325,183.719 275.325,183.386 274.5,182.5C 275.225,178.043 277.225,174.376 280.5,171.5 Z"/></g>
<g><path style="opacity:1" fill="#fce4b9" d="M 265.5,191.5 C 264.062,194.036 262.395,196.369 260.5,198.5C 261.648,223.476 261.815,248.476 261,273.5C 260.689,275.556 260.189,277.556 259.5,279.5C 261.396,280.466 263.396,280.799 265.5,280.5C 262.466,282.404 259.133,283.738 255.5,284.5C 255.472,256.351 255.472,228.351 255.5,200.5C 258.211,196.788 261.544,193.788 265.5,191.5 Z"/></g>
<g><path style="opacity:1" fill="#fdebdc" d="M 250.5,203.5 C 251.391,204.261 252.058,205.261 252.5,206.5C 251.623,230.646 251.29,254.646 251.5,278.5C 251.887,280.274 252.553,281.941 253.5,283.5C 250.972,285.874 247.972,286.874 244.5,286.5C 244.667,260.831 244.5,235.165 244,209.5C 243.283,208.956 242.783,208.289 242.5,207.5C 245.14,206.18 247.807,204.847 250.5,203.5 Z"/></g>
<g><path style="opacity:1" fill="#fce8cc" d="M 251.5,200.5 C 252.632,201.354 253.965,201.354 255.5,200.5C 255.472,228.351 255.472,256.351 255.5,284.5C 249.902,287.407 243.902,289.407 237.5,290.5C 237.062,290.565 236.728,290.399 236.5,290C 237.672,289.581 238.672,288.915 239.5,288C 238.498,264.343 238.165,240.51 238.5,216.5C 239.074,213.823 239.741,211.157 240.5,208.5C 241.183,208.137 241.85,207.804 242.5,207.5C 242.783,208.289 243.283,208.956 244,209.5C 244.5,235.165 244.667,260.831 244.5,286.5C 247.972,286.874 250.972,285.874 253.5,283.5C 252.553,281.941 251.887,280.274 251.5,278.5C 251.29,254.646 251.623,230.646 252.5,206.5C 252.058,205.261 251.391,204.261 250.5,203.5C 250.5,203.167 250.5,202.833 250.5,202.5C 250.328,201.508 250.662,200.842 251.5,200.5 Z"/></g>
<g><path style="opacity:1" fill="#fcdfa1" d="M 271.5,277.5 C 271.5,277.833 271.5,278.167 271.5,278.5C 269.703,279.73 267.703,280.396 265.5,280.5C 263.396,280.799 261.396,280.466 259.5,279.5C 260.189,277.556 260.689,275.556 261,273.5C 261.815,248.476 261.648,223.476 260.5,198.5C 262.395,196.369 264.062,194.036 265.5,191.5C 265.976,189.934 266.643,189.6 267.5,190.5C 267.376,219.459 267.376,248.459 267.5,277.5C 268.833,277.5 270.167,277.5 271.5,277.5 Z"/></g>
<g><path style="opacity:1" fill="#fbe1b3" d="M 250.5,202.5 C 250.5,202.833 250.5,203.167 250.5,203.5C 247.807,204.847 245.14,206.18 242.5,207.5C 241.85,207.804 241.183,208.137 240.5,208.5C 239.741,211.157 239.074,213.823 238.5,216.5C 238.165,240.51 238.498,264.343 239.5,288C 238.672,288.915 237.672,289.581 236.5,290C 236.728,290.399 237.062,290.565 237.5,290.5C 236.791,291.404 235.791,291.737 234.5,291.5C 233.504,291.414 232.671,291.748 232,292.5C 232.142,269.314 232.642,246.148 233.5,223C 232.624,221.414 231.624,219.914 230.5,218.5C 231.689,217.571 233.022,217.238 234.5,217.5C 234.863,215.089 233.863,213.589 231.5,213C 232.942,212.623 233.942,211.79 234.5,210.5C 239.702,207.65 245.035,204.983 250.5,202.5 Z"/></g>
<g><path style="opacity:1" fill="#f9cd5a" d="M 206.5,220.5 C 209.833,220.5 213.167,220.5 216.5,220.5C 216.818,243.033 216.484,265.533 215.5,288C 218.198,289.425 218.864,291.425 217.5,294C 215.075,295.213 212.741,296.379 210.5,297.5C 208.369,298.314 206.036,298.814 203.5,299C 202.186,299.985 201.186,301.152 200.5,302.5C 200.5,300.833 200.5,299.167 200.5,297.5C 199.5,297.5 198.5,297.5 197.5,297.5C 198.093,294.404 197.093,292.071 194.5,290.5C 195.167,269.833 195.833,249.167 196.5,228.5C 193.972,227.483 193.972,226.316 196.5,225C 195.906,224.536 195.239,224.369 194.5,224.5C 194.611,223.883 194.944,223.383 195.5,223C 199.351,222.586 203.017,221.752 206.5,220.5 Z"/></g>
<g><path style="opacity:1" fill="#fadc9b" d="M 234.5,210.5 C 233.942,211.79 232.942,212.623 231.5,213C 233.863,213.589 234.863,215.089 234.5,217.5C 233.022,217.238 231.689,217.571 230.5,218.5C 231.624,219.914 232.624,221.414 233.5,223C 232.642,246.148 232.142,269.314 232,292.5C 232.671,291.748 233.504,291.414 234.5,291.5C 233.438,293.099 233.438,294.766 234.5,296.5C 231.838,294.732 228.838,294.065 225.5,294.5C 223.473,294.662 221.473,294.495 219.5,294C 220.793,293.51 222.127,293.343 223.5,293.5C 224.777,270.27 224.777,246.77 223.5,223C 225.454,221.259 226.454,219.092 226.5,216.5C 224.007,216.869 223.34,216.203 224.5,214.5C 227.53,212.597 230.863,211.263 234.5,210.5 Z"/></g>
<g><path style="opacity:1" fill="#bdb856" d="M 200.5,218.5 C 202.379,219.341 204.379,219.675 206.5,219.5C 206.5,219.833 206.5,220.167 206.5,220.5C 203.017,221.752 199.351,222.586 195.5,223C 194.944,223.383 194.611,223.883 194.5,224.5C 180.515,225.451 166.515,226.118 152.5,226.5C 145.5,226.5 138.5,226.5 131.5,226.5C 127.833,226.5 124.167,226.5 120.5,226.5C 120.806,229.385 120.473,232.052 119.5,234.5C 119.5,231.5 119.5,228.5 119.5,225.5C 144.992,226.442 170.325,225.109 195.5,221.5C 197.167,221.5 198.833,221.5 200.5,221.5C 200.5,220.5 200.5,219.5 200.5,218.5 Z"/></g>
<g><path style="opacity:1" fill="#fad578" d="M 224.5,214.5 C 223.34,216.203 224.007,216.869 226.5,216.5C 226.454,219.092 225.454,221.259 223.5,223C 224.777,246.77 224.777,270.27 223.5,293.5C 222.127,293.343 220.793,293.51 219.5,294C 221.473,294.495 223.473,294.662 225.5,294.5C 220.727,296.022 215.727,297.022 210.5,297.5C 212.741,296.379 215.075,295.213 217.5,294C 218.864,291.425 218.198,289.425 215.5,288C 216.484,265.533 216.818,243.033 216.5,220.5C 213.167,220.5 209.833,220.5 206.5,220.5C 206.5,220.167 206.5,219.833 206.5,219.5C 212.231,217.231 218.231,215.565 224.5,214.5 Z"/></g>
<g><path style="opacity:1" fill="#c3b04b" d="M 363.5,186.5 C 354.255,209.002 340.588,228.336 322.5,244.5C 324.515,241.785 326.515,239.118 328.5,236.5C 332.439,232.386 336.273,228.053 340,223.5C 343.032,219.25 345.198,215.25 346.5,211.5C 348.795,208.703 351.295,206.036 354,203.5C 354.769,200.901 354.602,198.401 353.5,196C 354.449,195.383 355.282,195.549 356,196.5C 358.527,193.044 361.027,189.71 363.5,186.5 Z"/></g>
<g><path style="opacity:1" fill="#dea93c" d="M 131.5,226.5 C 138.5,226.5 145.5,226.5 152.5,226.5C 153.743,228.164 155.41,229.331 157.5,230C 156.5,230.333 155.5,230.667 154.5,231C 156.107,232.049 156.773,233.549 156.5,235.5C 151.371,236.614 151.371,237.281 156.5,237.5C 155.866,255.336 156.532,273.002 158.5,290.5C 156.833,291.167 155.167,291.833 153.5,292.5C 154.5,293.167 155.5,293.833 156.5,294.5C 157.002,295.716 157.335,296.883 157.5,298C 155.347,298.099 153.681,298.933 152.5,300.5C 141.645,300.411 130.979,299.744 120.5,298.5C 126.176,298.666 131.843,298.499 137.5,298C 135.913,297.138 134.246,296.471 132.5,296C 136.914,295.436 137.581,293.603 134.5,290.5C 135.371,269.253 135.704,248.253 135.5,227.5C 133.901,227.768 132.568,227.434 131.5,226.5 Z"/></g>
<g><path style="opacity:1" fill="#d39c31" d="M 131.5,226.5 C 132.568,227.434 133.901,227.768 135.5,227.5C 135.704,248.253 135.371,269.253 134.5,290.5C 137.581,293.603 136.914,295.436 132.5,296C 134.246,296.471 135.913,297.138 137.5,298C 131.843,298.499 126.176,298.666 120.5,298.5C 119.503,277.34 119.169,256.007 119.5,234.5C 120.473,232.052 120.806,229.385 120.5,226.5C 124.167,226.5 127.833,226.5 131.5,226.5 Z"/></g>
<g><path style="opacity:1" fill="#ecbc4b" d="M 194.5,224.5 C 195.239,224.369 195.906,224.536 196.5,225C 193.972,226.316 193.972,227.483 196.5,228.5C 195.833,249.167 195.167,269.833 194.5,290.5C 197.093,292.071 198.093,294.404 197.5,297.5C 187.637,299.579 177.637,300.579 167.5,300.5C 162.5,300.5 157.5,300.5 152.5,300.5C 153.681,298.933 155.347,298.099 157.5,298C 157.335,296.883 157.002,295.716 156.5,294.5C 155.5,293.833 154.5,293.167 153.5,292.5C 155.167,291.833 156.833,291.167 158.5,290.5C 156.532,273.002 155.866,255.336 156.5,237.5C 151.371,237.281 151.371,236.614 156.5,235.5C 156.773,233.549 156.107,232.049 154.5,231C 155.5,230.667 156.5,230.333 157.5,230C 155.41,229.331 153.743,228.164 152.5,226.5C 166.515,226.118 180.515,225.451 194.5,224.5 Z"/></g>
<g><path style="opacity:1" fill="#047f3b" d="M 308.5,257.5 C 306.86,258.79 306.36,260.457 307,262.5C 334.252,306.676 362.252,350.342 391,393.5C 394.333,400.833 394.333,408.167 391,415.5C 387.35,419.739 382.85,422.572 377.5,424C 358.5,424.667 339.5,424.667 320.5,424C 316.456,423.144 312.789,421.478 309.5,419C 283.599,378.695 258.599,337.862 234.5,296.5C 233.438,294.766 233.438,293.099 234.5,291.5C 235.791,291.737 236.791,291.404 237.5,290.5C 243.902,289.407 249.902,287.407 255.5,284.5C 259.133,283.738 262.466,282.404 265.5,280.5C 267.703,280.396 269.703,279.73 271.5,278.5C 283.903,273.464 295.236,266.631 305.5,258C 306.448,257.517 307.448,257.351 308.5,257.5 Z"/></g>
<g><path style="opacity:0.108" fill="#a39f3d" d="M 118.5,234.5 C 118.833,234.5 119.167,234.5 119.5,234.5C 119.169,256.007 119.503,277.34 120.5,298.5C 130.979,299.744 141.645,300.411 152.5,300.5C 157.5,300.5 162.5,300.5 167.5,300.5C 151.662,301.595 135.662,301.595 119.5,300.5C 119.768,302.099 119.434,303.432 118.5,304.5C 118.5,281.167 118.5,257.833 118.5,234.5 Z"/></g>
<g><path style="opacity:1" fill="#047f3b" d="M 197.5,297.5 C 198.5,297.5 199.5,297.5 200.5,297.5C 200.5,299.167 200.5,300.833 200.5,302.5C 200.209,333.345 200.542,364.178 201.5,395C 201.033,400.17 200.533,405.337 200,410.5C 198.062,418.105 193.228,422.605 185.5,424C 168.833,424.667 152.167,424.667 135.5,424C 126.604,422.977 121.104,418.144 119,409.5C 118.5,374.502 118.333,339.502 118.5,304.5C 119.434,303.432 119.768,302.099 119.5,300.5C 135.662,301.595 151.662,301.595 167.5,300.5C 177.637,300.579 187.637,299.579 197.5,297.5 Z"/></g>
<g><path style="opacity:0.02" fill="#316e3e" d="M 506.5,439.5 C 506.369,438.761 506.536,438.094 507,437.5C 507.692,438.437 507.525,439.103 506.5,439.5 Z"/></g>
<g><path style="opacity:0.012" fill="#4e8749" d="M 506.5,439.5 C 506.728,441.355 506.061,442.188 504.5,442C 505.066,441.005 505.733,440.172 506.5,439.5 Z"/></g>
<g><path style="opacity:0.059" fill="#2e7748" d="M 503.5,448.5 C 503.491,446.692 503.991,445.025 505,443.5C 505.599,445.535 505.099,447.201 503.5,448.5 Z"/></g>
<g><path style="opacity:0.024" fill="#265837" d="M 503.5,448.5 C 503.737,449.791 503.404,450.791 502.5,451.5C 502.263,450.209 502.596,449.209 503.5,448.5 Z"/></g>
<g><path style="opacity:0.035" fill="#3b894d" d="M 8.5,451.5 C 9.52502,451.897 9.69169,452.563 9,453.5C 8.53566,452.906 8.36899,452.239 8.5,451.5 Z"/></g>
<g><path style="opacity:0.039" fill="#2c7b3d" d="M 502.5,451.5 C 502.34,453.153 501.674,454.486 500.5,455.5C 500.229,453.62 500.896,452.287 502.5,451.5 Z"/></g>
<g><path style="opacity:0.047" fill="#2a803f" d="M 9.5,454.5 C 10.8333,455.167 10.8333,455.167 9.5,454.5 Z"/></g>
<g><path style="opacity:0.012" fill="#55aa54" d="M 11.5,458.5 C 12.8333,459.167 12.8333,459.167 11.5,458.5 Z"/></g>
<g><path style="opacity:0.039" fill="#33804c" d="M 12.5,460.5 C 13.8333,461.167 13.8333,461.167 12.5,460.5 Z"/></g>
<g><path style="opacity:0.047" fill="#2a803f" d="M 14.5,463.5 C 13.8333,462.167 13.8333,462.167 14.5,463.5 Z"/></g>
<g><path style="opacity:0.027" fill="#2ea644" d="M 14.5,463.5 C 16.2503,464.659 17.2503,466.326 17.5,468.5C 15.7497,467.341 14.7497,465.674 14.5,463.5 Z"/></g>
<g><path style="opacity:0.004" fill="#26d62f" d="M 17.5,468.5 C 18.525,468.897 18.6917,469.563 18,470.5C 17.5357,469.906 17.369,469.239 17.5,468.5 Z"/></g>
<g><path style="opacity:0.11" fill="#2b7346" d="M 500.5,455.5 C 497.555,464.054 493.055,471.721 487,478.5C 484.564,481.447 481.731,483.78 478.5,485.5C 487.024,476.319 494.357,466.319 500.5,455.5 Z"/></g>
<g><path style="opacity:0.059" fill="#376745" d="M 478.5,485.5 C 477.089,487.914 475.089,489.581 472.5,490.5C 473.911,488.086 475.911,486.419 478.5,485.5 Z"/></g>
<g><path style="opacity:0.027" fill="#246d48" d="M 472.5,490.5 C 471.833,491.167 471.833,491.167 472.5,490.5 Z"/></g>
<g><path style="opacity:0.012" fill="#545554" d="M 471.5,491.5 C 470.833,492.167 470.833,492.167 471.5,491.5 Z"/></g>
</svg>
