<svg width="445" height="321" viewBox="0 0 445 321" fill="none" xmlns="http://www.w3.org/2000/svg">
<g clip-path="url(#clip0_870_562)">
<path d="M445 321H0C4.87608 308.744 13.8808 298.346 26.5745 295.262C45.1437 290.756 64.7947 303.145 83.3214 298.487C93.8475 295.843 102.135 288.138 110.843 281.739C143.694 257.597 188.714 250.462 227.587 263.24C247.907 269.916 266.424 281.591 287.239 286.557C314.155 292.978 342.304 287.651 369.983 286.775C396.941 285.92 435.567 296.747 445 321Z" fill="#9CFFCA"/>
<path d="M293.363 196.569H138.887V0H260.487L293.363 34.2448V196.569Z" fill="#5EE69D"/>
<path d="M260.487 0V34.2448H293.363L260.487 0Z" fill="#F3F5FD"/>
<path d="M414.956 168.333H314.303V40.2538H393.535L414.956 62.5671V168.333Z" fill="#9CFFCA"/>
<path d="M393.535 40.2538V62.5671H414.956L393.535 40.2538Z" fill="#DEE8F5"/>
<path d="M117.947 168.333H17.2944V40.2538H96.5263L117.947 62.5671V168.333Z" fill="#9CFFCA"/>
<path d="M96.5264 40.2538V62.5671H117.947L96.5264 40.2538Z" fill="#DEE8F5"/>
<path d="M126.657 146.872C126.044 146.871 125.442 146.711 124.911 146.409C124.38 146.106 123.939 145.672 123.633 145.148C123.326 144.625 123.165 144.032 123.164 143.427C123.164 142.823 123.324 142.229 123.63 141.705L138.784 115.751C139.011 115.353 139.315 115.004 139.679 114.723C140.043 114.442 140.46 114.235 140.906 114.114C141.352 113.994 141.818 113.961 142.276 114.019C142.735 114.076 143.178 114.223 143.578 114.45C143.979 114.678 144.33 114.981 144.611 115.343C144.892 115.705 145.097 116.119 145.215 116.559C145.333 117 145.361 117.459 145.298 117.911C145.234 118.362 145.081 118.797 144.846 119.189L129.691 145.144C129.384 145.67 128.942 146.107 128.409 146.41C127.877 146.713 127.272 146.873 126.657 146.872Z" fill="#0CBC8B"/>
<path d="M150.11 120.771C149.552 120.771 148.989 120.748 148.422 120.7C143.223 120.263 138.413 117.808 135.051 113.875C131.689 109.943 130.049 104.855 130.493 99.7308C130.937 94.6066 133.428 89.8662 137.418 86.5522C141.407 83.2382 146.569 81.6221 151.768 82.0595C156.821 82.485 161.512 84.8173 164.862 88.5696C168.212 92.322 169.963 97.2046 169.749 102.199C169.535 107.193 167.373 111.912 163.713 115.373C160.054 118.833 155.18 120.767 150.109 120.771H150.11ZM150.087 88.8818C146.768 88.8773 143.58 90.1542 141.205 92.439C138.83 94.7238 137.457 97.8346 137.382 101.105C137.306 104.375 138.533 107.544 140.799 109.934C143.066 112.323 146.192 113.742 149.507 113.887C152.822 114.032 156.063 112.891 158.536 110.709C161.008 108.527 162.514 105.477 162.733 102.213C162.951 98.9489 161.863 95.7306 159.703 93.2475C157.542 90.7645 154.481 89.2144 151.175 88.9294C150.81 88.897 150.447 88.8818 150.087 88.8818Z" fill="#0CBC8B"/>
<path d="M101.322 314.957L91.2598 313.777C91.7124 310.023 92.2249 305.514 92.2596 304.774C92.2596 304.822 92.2596 304.861 92.2596 304.891H102.393C102.391 305.189 102.391 306.1 101.322 314.957Z" fill="#E98862"/>
<path d="M60.9449 316.149L50.8115 316.117C50.8115 316.117 50.8448 305.803 50.8448 304.889H60.9782C60.9787 305.806 60.9449 316.149 60.9449 316.149Z" fill="#E98862"/>
<path d="M105.06 311.501C104.222 290.57 104.171 268.586 103.909 247.599C100.422 224.963 98.5915 200.135 94.2892 177.659L94.1608 177.696L93.7834 175.161L57.0732 172.93C57.0732 172.93 56.1158 190.66 55.7819 196.568C53.9926 228.239 50.3615 279.143 48.2002 311.235L65.9905 312.717C69.1681 281.155 74.3491 230.874 77.2202 199.766C80.3712 215.617 83.3427 233.467 86.14 249.506C86.7523 269.995 87.2648 291.346 87.2088 311.802L105.06 311.501Z" fill="#262626"/>
<path d="M73.2633 320.012C73.7891 320.01 74.2924 319.802 74.6625 319.434C75.0326 319.065 75.2392 318.568 75.2369 318.049C75.2369 318.002 75.2369 317.954 75.2307 317.907C75.2012 317.535 75.0648 317.18 74.8375 316.883C74.6102 316.586 74.3015 316.358 73.9476 316.228L62.1514 312.335C61.9229 312.26 61.6808 312.235 61.4416 312.261C61.2024 312.288 60.9718 312.365 60.7655 312.487C59.144 313.596 57.2044 314.162 55.2317 314.104C53.6953 313.996 52.2205 313.465 50.9757 312.571C50.8663 312.483 50.7336 312.427 50.5932 312.41C50.4528 312.393 50.3104 312.416 50.1826 312.476C50.0548 312.536 49.9469 312.63 49.8715 312.748C49.796 312.866 49.7561 313.002 49.7563 313.142V318.826C49.7563 319.164 49.8925 319.488 50.1348 319.727C50.3772 319.966 50.7059 320.1 51.0486 320.1H51.0534L73.2633 320.012Z" fill="#046431"/>
<path d="M113.669 320.012C114.194 320.01 114.697 319.802 115.067 319.434C115.437 319.066 115.644 318.568 115.642 318.05C115.642 318.002 115.639 317.955 115.635 317.907C115.606 317.536 115.47 317.181 115.243 316.883C115.015 316.586 114.707 316.359 114.353 316.229L102.558 312.335C102.33 312.261 102.088 312.236 101.848 312.262C101.609 312.288 101.379 312.365 101.172 312.487C99.5507 313.596 97.6111 314.163 95.6385 314.104C94.1019 313.997 92.627 313.466 91.382 312.572C91.2725 312.483 91.1399 312.427 90.9995 312.41C90.859 312.394 90.7167 312.416 90.5889 312.476C90.4611 312.536 90.3532 312.63 90.2777 312.748C90.2023 312.866 90.1623 313.003 90.1626 313.142V318.827C90.1626 319.165 90.2987 319.489 90.5411 319.728C90.7834 319.966 91.1121 320.101 91.4548 320.101H91.4602L113.669 320.012Z" fill="#046431"/>
<path d="M68.9678 124.163C68.9678 124.163 72.6988 122.213 71.8659 112.198L79.575 110.789C79.575 110.789 78.7064 119.768 82.6087 122.619L68.9678 124.163Z" fill="#E98862"/>
<path d="M67.4918 108.315C68.0255 111.353 69.7076 114.231 72.4268 115.211C75.655 116.377 78.0459 116.456 81.7678 116.456C86.8465 116.456 86.6786 111.235 86.8214 105.973C86.9662 100.694 86.5382 95.0254 84.5308 93.1848C80.5257 89.5111 68.7648 91.8373 67.3345 97.9824C66.5957 101.161 66.9818 105.423 67.4918 108.315Z" fill="#E98862"/>
<path d="M89.9589 93.1267C89.1096 90.0557 86.4614 88.5555 82.0829 89.6837C78.9685 90.4861 78.5743 89.7646 75.9367 88.5132C74.4264 87.7965 69.4707 88.1237 68.2446 91.4297C66.9301 94.9712 62.8637 92.1032 62.4859 97.8725C62.1698 102.701 63.8259 109.604 67.1535 113.489C68.3058 114.833 70.1853 116.445 71.6412 116.844C73.0709 117.236 79.2523 116.891 79.853 116.542C82.8047 114.815 82.5017 106.892 82.0336 101.809C81.9569 100.973 82.1128 99.5833 84.29 99.5833C85.7859 99.5833 86.6144 99.5481 87.387 98.9992C87.3884 98.9992 90.8091 96.1974 89.9589 93.1267Z" fill="#0F1011"/>
<path d="M84.9571 106.971C85.016 107.741 84.7636 108.502 84.255 109.089C83.7464 109.676 83.0229 110.04 82.2425 110.103C81.4621 110.166 80.6882 109.922 80.0898 109.424C79.4913 108.926 79.1169 108.216 79.0484 107.447C79.0106 107.071 79.0483 106.692 79.1593 106.331C79.2703 105.97 79.4524 105.634 79.6952 105.342C79.9379 105.05 80.2367 104.808 80.5743 104.63C80.9119 104.452 81.2818 104.341 81.6628 104.304C81.6956 104.301 81.7279 104.298 81.7593 104.296C83.8733 104.23 84.8234 105.363 84.9571 106.971Z" fill="#E98862"/>
<path d="M126.957 139.753C126.957 139.753 135.089 136.019 136.366 135.01C140.866 131.458 140.771 128.81 140.162 127.691C139.445 126.368 131.006 130.735 131.006 130.735C131.006 130.735 132.642 128.5 131.759 127.886C131.397 127.634 130.898 127.868 129.438 129.305C127.774 130.945 124.922 133.245 124.922 133.245L126.957 139.753Z" fill="#E98862"/>
<path d="M57.5251 149.952C57.9911 151.794 58.2457 153.683 58.2842 155.582C58.2842 165.57 53.7 170.049 54.0378 175.177C54.5686 183.237 94.2957 181.332 96.32 176.754C98.4041 172.033 94.1741 169.124 94.3594 153.682C94.3792 152.002 94.511 150.244 94.6924 148.453L102.51 162.247C102.919 162.969 103.497 163.584 104.197 164.04C104.897 164.497 105.697 164.782 106.531 164.872C107.366 164.961 108.21 164.853 108.993 164.556C109.776 164.258 110.475 163.78 111.033 163.162L132.691 138.192L124.558 132.556L108.085 150.824L95.2015 128.089C93.9816 124.497 91.2046 122.092 85.5395 121.852C83.6021 121.771 74.1487 121.757 67.2271 121.757C62.5773 121.757 58.76 123.164 56.5552 125.336L56.5219 125.369C55.7136 126.18 55.0904 127.152 54.6941 128.219C54.2978 129.287 54.1375 130.426 54.2241 131.559C54.4388 134.782 55.1544 141.178 57.5251 149.952Z" fill="#104D2D"/>
<path d="M200.52 55.4312L196.44 51.4106L169.975 77.4969L174.054 81.5175L200.52 55.4312Z" fill="white"/>
<path d="M196.44 81.5176L200.52 77.4969L174.054 51.4106L169.975 55.4313L196.44 81.5176Z" fill="white"/>
<path d="M262.275 55.431L258.196 51.4103L231.73 77.4966L235.81 81.5173L262.275 55.431Z" fill="white"/>
<path d="M258.196 81.5178L262.275 77.4972L235.81 51.4109L231.73 55.4315L258.196 81.5178Z" fill="white"/>
<path d="M189.353 126.098L185.09 122.235C185.557 121.733 196.767 109.93 217.814 109.93C238.983 109.93 248.86 121.879 249.27 122.387L244.736 125.938C244.399 125.528 236.056 115.637 217.814 115.637C199.425 115.638 189.452 125.992 189.353 126.098Z" fill="white"/>
<path d="M360.936 210.835L355.963 211.994L362.197 237.986L367.17 236.827L360.936 210.835Z" fill="#F0F6FF"/>
<path d="M366.408 208.819L362.138 231.634L364.899 232.136L369.168 209.321L366.408 208.819Z" fill="#9CFFCA"/>
<path d="M366.41 208.812L365.924 211.328L368.682 211.846L369.168 209.329L366.41 208.812Z" fill="#DEE8F5"/>
<path d="M357.86 214.613L356.327 215.209L365.274 237.593L366.807 236.998L357.86 214.613Z" fill="#0CBC8B"/>
<path d="M369.386 224.412H355.9V241.401H369.386V224.412Z" fill="#9CFFCA"/>
<path d="M319.9 272.089H314.856V321H319.9V272.089Z" fill="#39A07B"/>
<path d="M315.748 272.089H310.704V321H315.748V272.089Z" fill="#3FBF8C"/>
<path d="M382.729 272.089H377.685V321H382.729V272.089Z" fill="#39A07B"/>
<path d="M378.578 272.089H373.534V321H378.578V272.089Z" fill="#3FBF8C"/>
<path d="M333.735 272.089H328.691V321H333.735V272.089Z" fill="#39A07B"/>
<path d="M329.583 272.089H324.539V321H329.583V272.089Z" fill="#3FBF8C"/>
<path d="M396.564 272.089H391.52V321H396.564V272.089Z" fill="#39A07B"/>
<path d="M392.413 272.089H387.369V321H392.413V272.089Z" fill="#3FBF8C"/>
<path d="M396.564 240.781H328.722V273.261H396.564V240.781Z" fill="#39A07B"/>
<path d="M378.546 240.781H310.704V273.261H378.546V240.781Z" fill="#369B76"/>
<g opacity="0.53">
<path d="M374.897 245.398H314.354V268.5H374.897V245.398Z" fill="#31BB81"/>
</g>
<path d="M344.625 259.6C346.11 259.6 347.314 258.413 347.314 256.949C347.314 255.486 346.11 254.299 344.625 254.299C343.14 254.299 341.936 255.486 341.936 256.949C341.936 258.413 343.14 259.6 344.625 259.6Z" fill="white"/>
</g>
<defs>
<clipPath id="clip0_870_562">
<rect width="445" height="321" fill="white"/>
</clipPath>
</defs>
</svg>
